<svg xmlns="http://www.w3.org/2000/svg" width="256" height="256">
    <circle fill="#333" cx="128" cy="128" r="128"/>
    <path fill="#fff" d="M72.749 171.89c-13.458-.948-25.062-7.823-30.821-18.261-1.229-2.228-1.831-3.018-2.567-3.367-.803-.382-2.455-.419-4.949-.113-2.276.279-8.427-.06-11.144-.614-1.906-.389-3.892-1.038-4.253-1.39-.255-.248 2.706-1.314 4.956-1.785 2.608-.545 5.775-.94 10.041-1.251l3.458-.252-.128-.856c-.071-.47-.526-2.492-1.012-4.492-1.452-5.976-1.897-9.948-1.897-16.939 0-6.544.521-11.265 1.802-16.338 3.877-15.346 12.689-25.469 26.839-30.829C69.354 73.024 75.299 72 82.824 72c6.548 0 10.866.617 15.917 2.273 5.008 1.642 8.945 3.994 12.333 7.366 5.296 5.271 7.64 11.308 7.64 19.677 0 4.901-.573 8.002-2.294 12.406-1.395 3.571-3.219 6.28-6.32 9.386-5.476 5.486-13.839 10.165-28.574 15.987-5.792 2.289-6.963 2.568-8.235 1.964s-1.598-1.448-2.029-5.199c-.388-3.373-.706-10.166-.706-15.075-.003-13.892 2.131-23.069 6.929-29.819 1.581-2.225 4.377-4.975 6.599-6.491 1.022-.697 1.823-1.304 1.778-1.348-.096-.096-1.847.505-3.236 1.111-2.794 1.218-6.211 4.184-8.475 7.354-2.6 3.641-5.011 9.713-6.181 15.563-1.034 5.171-1.237 7.291-1.399 14.628-.165 7.481-.247 8.091-1.398 10.372-.655 1.298-2.191 2.979-3.607 3.947-3.609 2.468-11.199 5.31-20.438 7.653l-3.466.917c-.054.041 1.877 5.109 2.061 5.406.014.023 3.568-.579 7.898-1.337 6.827-1.195 8.702-1.607 14.123-3.097 3.438-.945 6.338-1.69 6.444-1.655s.402.661.656 1.39c.709 2.031 1.812 3.692 3.69 5.563 1.354 1.348 2.066 1.878 3.407 2.539 2.48 1.222 3.955 1.53 7.282 1.523 3.119-.009 5.35-.398 8.546-1.496 5.3-1.821 11.816-5.535 15.394-8.774 3.651-3.306 5.859-4.78 7.581-5.063 1.802-.295 3.351 1.224 4.02 3.944.286 1.163.301 1.587.104 2.858-1.027 6.609-8.296 14.176-18.562 19.324-9.287 4.656-18.633 6.724-27.557 6.095zm-18.307-45.258c2.733-1.095 3.297-5.242 1.022-7.52-1.413-1.415-3.634-1.751-5.577-.846-3.672 1.711-2.705 7.672 1.416 8.727.756.194 2.154.032 3.139-.362z"/>
    <path fill="#fff" d="M103.082 223.489c-8.935-1.461-16.07-7.954-18.294-16.649-1.568-6.131-.768-13.097 2.164-18.844 1.269-2.488 3.667-5.006 5.65-5.935 3.339-1.563 6.829-1.53 10.208.095 4.843 2.33 7.24 8.011 5.407 12.815-.678 1.775-1.902 3.056-3.933 4.113-3.067 1.596-4.338 3.11-5.005 5.962-.767 3.283.595 4.22 6.135 4.22 7.753 0 11.954-3.072 16.428-12.014 2.224-4.445 2.774-6.422 12.076-43.422l9.086-36.077c.099-.337-.387-.377-5.588-.454-6.656-.099-7.083-.196-9.107-2.066-1.792-1.656-2.324-2.909-2.328-5.487-.003-1.726.076-2.146.608-3.227.714-1.451 2.193-2.896 3.656-3.57.988-.456 1.374-.479 8.998-.542l7.966-.065.948-2.359c4.247-10.567 10.688-20.225 18.995-28.479 10.18-10.116 20.344-15.167 32.81-16.305 6.775-.619 13.299 1.716 17.941 6.42 2.789 2.826 4.495 5.543 5.666 9.025 2.242 6.665 1.322 15.526-2.237 21.558-3.981 6.747-12.523 8.005-17.994 2.65-2.509-2.456-3.862-6.143-3.293-8.973.593-2.947 1.983-4.726 4.764-6.097 2.857-1.409 4.532-3.75 4.896-6.842.136-1.152.111-1.231-.611-1.951-.994-.992-3.028-1.362-6.485-1.179-4.73.25-7.706 1.531-10.822 4.658-1.093 1.097-2.317 2.557-2.72 3.243-1.764 3.003-4.32 9.265-6.15 15.063-.817 2.588-2.5 8.854-2.502 9.313-.001.214 1.374.276 6.143.276 7.066 0 7.742.114 9.595 1.619.809.656 1.387 1.389 1.923 2.436.677 1.321.767 1.697.77 3.185.005 3.23-1.398 5.512-4.251 6.915l-1.471.723-17.233.22-6.418 20.83-9.492 29.206c-4.548 11.284-11.032 23.083-17.448 31.752-4.363 5.894-11.256 13.279-15.342 16.437-7.885 6.094-16.84 8.992-24.109 7.804z"/>
</svg>
